<?xml version="1.0" encoding="utf-8"?>
<!-- Generator: Adobe Illustrator 16.0.0, SVG Export Plug-In . SVG Version: 6.00 Build 0)  -->
<!DOCTYPE svg PUBLIC "-//W3C//DTD SVG 1.1//EN" "http://www.w3.org/Graphics/SVG/1.1/DTD/svg11.dtd">
<svg version="1.1" id="Layer_1" xmlns="http://www.w3.org/2000/svg" xmlns:xlink="http://www.w3.org/1999/xlink" x="0px" y="0px"
	 width="1600px" height="1600px" viewBox="0 0 1600 1600" enable-background="new 0 0 1600 1600" xml:space="preserve">
<g id="book">
	
		<linearGradient id="book-fly_1_" gradientUnits="userSpaceOnUse" x1="863.7178" y1="1314.2344" x2="863.7178" y2="1313.2344" gradientTransform="matrix(650 0 0 -700 -560616.5 920293.5)">
		<stop  offset="0" style="stop-color:#5D4037"/>
		<stop  offset="0.45" style="stop-color:#4E342E"/>
		<stop  offset="0.95" style="stop-color:#4E342E"/>
	</linearGradient>
	<polygon id="book-fly" fill="url(#book-fly_1_)" stroke="#4E342E" stroke-width="16" points="800,530 1125,330 1080,830 800,1030 
		520,830 475,330 	"/>
	<polygon id="book-bind" fill="#4E342E" stroke="#4E342E" stroke-width="32" points="789,528 811,528 811,1030 789,1030 	"/>
</g>
<g id="cat-face">
	
		<linearGradient id="face-frame_1_" gradientUnits="userSpaceOnUse" x1="864.1455" y1="1314.0166" x2="864.1455" y2="1313.0166" gradientTransform="matrix(800 0 0 -800 -690516.5 1051613.5)">
		<stop  offset="0.05" style="stop-color:#757575"/>
		<stop  offset="0.6" style="stop-color:#9E9E9E"/>
		<stop  offset="0.95" style="stop-color:#9E9E9E"/>
	</linearGradient>
	<polygon id="face-frame" fill="url(#face-frame_1_)" stroke="#555555" stroke-width="24" points="800,600 1200,400 1150,1000 
		800,1200 450,1000 400,400 	"/>
	<g id="left-eye">
		<path fill="#B2EBF2" d="M747.382,743.661c0,0-38.477,60.156-110.303,41.055c-71.807-19.121-74.844-90.322-74.844-90.322
			s38.479-60.146,110.273-41.045C744.325,672.469,747.382,743.661,747.382,743.661z"/>
		<path fill="#80DEEA" d="M740.019,712.86c0,0-34.18,37.832-81.084,37.832c-50.928,0-81.143-73.945-81.143-73.945
			s33.486-39.297,94.756-23.438C728.671,667.801,740.019,712.86,740.019,712.86z"/>
		<path fill="#4C5359" d="M687.86,711.961c0,82.295-39.668,82.295-39.668,0C648.183,629.637,687.86,629.637,687.86,711.961z"/>
	</g>
	<g id="right-eye">
		<path fill="#B2EBF2" d="M926.002,654.38c71.797-19.102,110.283,41.045,110.283,41.045s-3.037,71.201-74.844,90.322
			c-71.826,19.102-110.313-41.054-110.313-41.054S854.195,673.501,926.002,654.38z"/>
		<path fill="#80DEEA" d="M925.973,654.341c61.271-15.854,94.756,23.438,94.756,23.438s-30.215,73.938-81.143,73.938
			c-46.904,0-81.084-37.832-81.084-37.832S869.85,668.833,925.973,654.341z"/>
		<path fill="#4C5359" d="M950.328,712.993c0,82.294-39.668,82.294-39.668,0C910.66,630.669,950.338,630.669,950.328,712.993z"/>
	</g>
	<path id="lips" fill="none" stroke="#555555" stroke-width="24" d="M961.421,1106.698c-33.676,0-160.422-109.979-160.422-139.198
		c0,29.229-126.743,139.198-160.422,139.198"/>
	<path id="nose" fill="#505050" d="M773.783,889.061c4.683-0.313,8.917,0.604,13.146,3.021c0.563,0.313,2.354,1.394,2.823,1.81
		c0.563,0.521,4.457,3.578,5.218,4.577c0.389,0.479,4.104,4.979,4.104,4.979s3.54-3.771,4.166-4.41
		c1.076-1.063,2.084-1.748,2.867-2.33c2.278-1.729,4.608-3.271,7.229-4.764c1.836-1.063,4.994-2.039,6.683-2.271
		c0.471-0.063,1.724-0.229,2.276-0.313c6.392-0.913,14.65,1.664,19.332,4.364c5.178,2.979,8.736,7.363,11.49,12.854
		c0.604,1.229,1.994,4.494,2.263,5.305c1.456,4.354,1.793,9.84,1.367,15.271c-0.646,8.44-4.276,17.119-8.146,22.356
		c-0.784,1.04-2.576,4.078-4.75,6.698c-7.234,8.653-17.943,19.43-28.724,26.253c-3.021,1.913-14.604,8.257-14.604,8.257
		s-12.074-6.732-14-7.924c-12.208-7.572-25.693-18.307-33.224-30.435c-2.618-4.229-5.646-8.487-7.366-13.646
		c-0.812-2.371-1.522-4.409-2.084-7.052c-1.32-6.22-0.918-13.543,0.853-19.347c0.784-2.579,1.949-5.354,3.068-7.557
		c4.056-7.885,11.581-13.063,21.479-15.082C770.827,889.372,772.327,889.145,773.783,889.061"/>
	<g id="mustache">
		<path fill="none" stroke="#4E342E" stroke-width="2" d="M896.615,991c0,55.273,134.18,100,300,100"/>
		<path fill="none" stroke="#4E342E" stroke-width="2" d="M910.66,958.784c0,55.271,134.18,100,300,100"/>
		<path fill="none" stroke="#4E342E" stroke-width="2" d="M703.66,991c0,55.273-134.18,100-300,100"/>
		<path fill="none" stroke="#4E342E" stroke-width="2" d="M689.615,958.784c0,55.271-134.183,100-300,100"/>
	</g>
</g>
<g id="bow">
	<path id="bow-l" fill="#5D4037" d="M781.422,1313.777c-29.607,12.559-70.137,29.496-95.584,41.776
		c-8.309,4.056-17.637-1.829-20.117-13.274c-7.115-34.727-7.115-70.901,0-105.628c2.481-11.446,11.809-17.331,20.117-13.274
		c25.448,12.279,65.978,29.217,95.584,41.775V1313.777z"/>
	<path id="bow-r" fill="#5D4037" d="M820.576,1265.152c29.606-12.56,70.137-29.497,95.586-41.777
		c8.309-4.056,17.635,1.829,20.116,13.275c7.114,34.725,7.114,70.9,0,105.627c-2.481,11.445-11.808,17.331-20.116,13.274
		c-25.45-12.278-65.98-29.218-95.586-41.776V1265.152L820.576,1265.152z"/>
	<g id="bow-crease">
		<path fill="#4E342E" d="M714.934,1314.95c-3.575,0-6.695-2.632-7.213-6.272c-0.564-3.988,2.214-7.679,6.202-8.242l64.3-9.095
			c3.969-0.531,7.673,2.208,8.243,6.202c0.565,3.988-2.214,7.678-6.201,8.242l-64.301,9.094
			C715.619,1314.927,715.276,1314.95,714.934,1314.95z"/>
		<path fill="#4E342E" d="M779.252,1287.66c-0.342,0-0.683-0.023-1.03-0.071l-64.299-9.094c-3.989-0.564-6.766-4.254-6.202-8.242
			c0.57-3.988,4.273-6.709,8.244-6.202l64.299,9.094c3.989,0.565,6.767,4.254,6.201,8.244
			C785.947,1285.029,782.829,1287.66,779.252,1287.66z"/>
		<path fill="#4E342E" d="M887.064,1263.979c3.575,0,6.695,2.631,7.213,6.271c0.565,3.989-2.213,7.679-6.201,8.243l-64.299,9.094
			c-3.971,0.533-7.675-2.207-8.244-6.2c-0.565-3.989,2.213-7.679,6.201-8.243l64.3-9.094
			C886.381,1264.003,886.723,1263.979,887.064,1263.979z"/>
		<path fill="#4E342E" d="M822.746,1291.27c0.342,0,0.684,0.023,1.031,0.07l64.299,9.094c3.988,0.564,6.766,4.255,6.201,8.243
			c-0.57,3.988-4.273,6.71-8.243,6.201l-64.3-9.093c-3.988-0.565-6.766-4.254-6.201-8.243
			C816.05,1293.899,819.17,1291.27,822.746,1291.27z"/>
	</g>
	<path id="bow-knot" fill="#6D4C41" d="M830.218,1308.914c0,5.35-4.376,9.726-9.726,9.726h-38.898c-5.349,0-9.725-4.376-9.725-9.726
		v-38.899c0-5.349,4.375-9.726,9.725-9.726h38.898c5.35,0,9.726,4.376,9.726,9.726V1308.914z"/>
</g>
</svg>
