<?xml version="1.0" encoding="utf-8"?>
<!-- Generator: Adobe Illustrator 16.0.0, SVG Export Plug-In . SVG Version: 6.00 Build 0)  -->
<!DOCTYPE svg PUBLIC "-//W3C//DTD SVG 1.1//EN" "http://www.w3.org/Graphics/SVG/1.1/DTD/svg11.dtd">
<svg version="1.1" id="Layer_1" xmlns="http://www.w3.org/2000/svg" xmlns:xlink="http://www.w3.org/1999/xlink" x="0px" y="0px"
	 width="1600px" height="1600px" viewBox="0 0 1600 1600" enable-background="new 0 0 1600 1600" xml:space="preserve">
	<defs>
        <linearGradient id="FaceGrad" x1="0" x2="0" y1="0" y2="1">
            <stop offset="5%"  stop-color="#757575"/>
            <stop offset="60%" stop-color="#9E9E9E"/>
            <stop offset="95%" stop-color="#BDBDBD"/>
        </linearGradient>
        <linearGradient id="BookGrad" x1="0" x2="0" y1="0" y2="1">
            <stop offset="0%"  stop-color="#795548"/>
            <stop offset="5%" stop-color="#6D4C41"/>
            <stop offset="95%" stop-color="#5D4037"/>
        </linearGradient>
    </defs>
<g id="book">
	<polygon id="book-fly" fill="url(#BookGrad)" stroke="#5D4037" stroke-width="16" points="800,530 1125,330 1080,830 800,1030 520,830
		475,330 	"/>
	<polygon id="book-bind" fill="#5D4037" stroke="#5D4037" stroke-width="24" points="789,528 811,528 811,1030 789,1030 	"/>
</g>
<g id="cat-face">
	<polygon id="face-frame" fill="url(#FaceGrad)" stroke="#555" stroke-width="24" points="800,600 1200,400 1150,1000 800,1200
		450,1000 400,400 	"/>
	<g id="left-eye">
		<path fill="#B2EBF2" d="M747.382,743.661c0,0-38.477,60.156-110.303,41.055c-71.807-19.121-74.844-90.322-74.844-90.322
			s38.479-60.146,110.276-41.045C744.325,672.469,747.382,743.661,747.382,743.661z"/>
		<path fill="#80DEEA" d="M740.019,712.86c0,0-34.18,37.832-81.084,37.832c-50.928,0-81.143-73.945-81.143-73.945
			s33.486-39.297,94.756-23.438C728.671,667.801,740.019,712.86,740.019,712.86z"/>
		<path fill="#4C5359" d="M687.86,711.961c0,82.295-39.668,82.295-39.668,0C648.183,629.637,687.86,629.637,687.86,711.961z"/>
	</g>
	<g id="right-eye">
		<path fill="#B2EBF2" d="M926.002,654.38c71.797-19.102,110.283,41.045,110.283,41.045s-3.037,71.201-74.844,90.322
			c-71.826,19.102-110.31-41.054-110.31-41.054S854.195,673.501,926.002,654.38z"/>
		<path fill="#80DEEA" d="M925.973,654.341c61.271-15.854,94.756,23.438,94.756,23.438s-30.215,73.938-81.143,73.938
			c-46.904,0-81.084-37.832-81.084-37.832S869.85,668.833,925.973,654.341z"/>
		<path fill="#4C5359" d="M950.328,712.993c0,82.294-39.668,82.294-39.668,0C910.66,630.669,950.338,630.669,950.328,712.993z"/>
	</g>
	<path id="lips" fill="none" stroke="#555" stroke-width="24" d="M961.421,1106.698c-33.676,0-160.422-109.976-160.422-139.198
		c0,29.229-126.743,139.198-160.422,139.198"/>
	<path id="nose" fill="#505050" d="M773.783,889.061c4.683-0.313,8.917,0.604,13.146,3.021c0.563,0.313,2.354,1.394,2.823,1.81
		c0.563,0.521,4.457,3.578,5.218,4.577c0.386,0.479,4.104,4.976,4.104,4.976s3.54-3.77,4.166-4.41
		c1.076-1.063,2.084-1.748,2.867-2.33c2.281-1.729,4.611-3.27,7.232-4.764c1.836-1.063,4.994-2.039,6.68-2.271
		c0.471-0.063,1.724-0.229,2.279-0.313c6.389-0.913,14.65,1.664,19.332,4.367c5.178,2.979,8.736,7.363,11.49,12.854
		c0.604,1.229,1.994,4.494,2.263,5.305c1.456,4.354,1.793,9.84,1.367,15.271c-0.647,8.443-4.276,17.119-8.149,22.359
		c-0.784,1.04-2.576,4.078-4.75,6.698c-7.234,8.653-17.943,19.43-28.721,26.253c-3.021,1.913-14.604,8.257-14.604,8.257
		s-12.074-6.735-14-7.924c-12.208-7.572-25.693-18.307-33.221-30.435c-2.619-4.227-5.646-8.487-7.368-13.646
		c-0.81-2.371-1.523-4.409-2.083-7.052c-1.322-6.22-0.918-13.543,0.851-19.347c0.784-2.579,1.949-5.351,3.069-7.554
		c4.055-7.885,11.581-13.063,21.479-15.082C770.827,889.372,772.327,889.145,773.783,889.061"/>
	<g id="mustache">
		<path fill="none" stroke="#444" stroke-width="2" d="M896.615,991c0,55.273,134.18,100,300,100"/>
		<path fill="none" stroke="#444" stroke-width="2" d="M910.66,958.784c0,55.273,134.18,100,300,100"/>
		<path fill="none" stroke="#444" stroke-width="2" d="M703.66,991c0,55.273-134.18,100-300,100"/>
		<path fill="none" stroke="#444" stroke-width="2" d="M689.615,958.784c0,55.273-134.18,100-300,100"/>
	</g>
</g>
</svg>
